<mxfile host="app.diagrams.net" modified="2024-07-30T03:00:39.600Z" agent="Mozilla/5.0 (Windows NT 10.0; Win64; x64) AppleWebKit/537.36 (KHTML, like Gecko) Chrome/127.0.0.0 Safari/537.36" version="24.6.5" etag="Wyxv7JauF9CE0nXhZHva" type="github">
  <diagram name="第 1 页" id="1NaeYYbevfWh8wgsjiGq">
    <mxGraphModel>
      <root>
        <mxCell id="0" />
        <mxCell id="1" parent="0" />
      </root>
    </mxGraphModel>
  </diagram>
</mxfile>
